<svg width="30" height="30" viewBox="0 0 30 30" fill="none" xmlns="http://www.w3.org/2000/svg">
<path fill-rule="evenodd" clip-rule="evenodd" d="M3 5.13815V26C3 26.5523 3.44772 27 4 27H26C26.5523 27 27 26.5523 27 26V5.13815C26.7694 5.37222 26.5078 5.63771 26.2213 5.92818C25.1115 7.05375 23.6292 8.55483 22.1404 10.0562C20.6523 11.5569 19.155 13.0605 18.016 14.1901C17.4474 14.754 16.963 15.2297 16.612 15.5665C16.4381 15.7334 16.2876 15.8753 16.1725 15.9791C16.1175 16.0287 16.0539 16.0848 15.9925 16.1342C15.9649 16.1564 15.9117 16.1985 15.8459 16.242C15.8149 16.2626 15.7507 16.3038 15.6655 16.3455C15.6644 16.346 15.6631 16.3467 15.6614 16.3475C15.6177 16.3693 15.3558 16.5 15 16.5C14.6442 16.5 14.3823 16.3693 14.3386 16.3475C14.3369 16.3467 14.3356 16.346 14.3345 16.3455C14.2493 16.3038 14.1851 16.2626 14.1541 16.242C14.0883 16.1985 14.0351 16.1564 14.0075 16.1342C13.9461 16.0848 13.8825 16.0287 13.8275 15.9791C13.7124 15.8753 13.5619 15.7334 13.388 15.5665C13.037 15.2297 12.5526 14.754 11.984 14.1901C10.845 13.0605 9.3477 11.5569 7.85957 10.0562C6.37078 8.55483 4.88854 7.05375 3.77867 5.92818C3.49225 5.63771 3.2306 5.37222 3 5.13815ZM24.8951 3H5.10486C5.34292 3.24165 5.61531 3.51805 5.91484 3.82182C7.02359 4.94625 8.50369 6.44517 9.98979 7.94381C11.4765 9.44312 12.9667 10.9395 14.0965 12.0599C14.4348 12.3954 14.739 12.6954 15 12.9507C15.261 12.6954 15.5652 12.3954 15.9035 12.0599C17.0333 10.9395 18.5235 9.44312 20.0102 7.94381C21.4963 6.44517 22.9764 4.94625 24.0852 3.82182C24.3847 3.51805 24.6571 3.24165 24.8951 3ZM4 0C1.79086 0 0 1.79086 0 4V26C0 28.2091 1.79086 30 4 30H26C28.2091 30 30 28.2091 30 26V4C30 1.79086 28.2091 0 26 0H4Z" fill="#343F56"/>
</svg>
