<svg width="31" height="31" viewBox="0 0 31 31" fill="none" xmlns="http://www.w3.org/2000/svg">
<path d="M28.79 15.4393C28.79 15.4363 28.787 15.4363 28.787 15.4332L28.7325 15.3697C28.7294 15.3666 28.7264 15.3606 28.7204 15.3575C28.6992 15.3333 28.675 15.3091 28.6538 15.2849L16.9561 3.59632L16.172 2.81223C15.9934 2.63476 15.7518 2.53516 15.5 2.53516C15.2481 2.53516 15.0065 2.63476 14.8279 2.81223L2.34614 15.2879C2.12065 15.5122 1.95424 15.7889 1.86177 16.0932L1.8436 16.1568L1.83452 16.1901L1.82544 16.2264C1.81938 16.2476 1.81636 16.2688 1.81333 16.29C1.81333 16.293 1.81333 16.299 1.8103 16.3021C1.79214 16.3929 1.78306 16.4837 1.78003 16.5776V16.6775C1.78003 16.6926 1.78003 16.7077 1.78306 16.7229C1.78306 16.738 1.78306 16.7501 1.78608 16.7653C1.78608 16.7804 1.78911 16.7955 1.78911 16.8107C1.78911 16.8288 1.79214 16.847 1.79517 16.8652C1.79517 16.8742 1.79819 16.8833 1.79819 16.8924L1.80728 16.9681V16.9711C1.96167 17.8945 2.78208 18.5907 3.74478 18.5907H5.0314V28.4569H25.9715V18.5968H27.2854C27.5458 18.5968 27.797 18.5453 28.0271 18.4485C28.2572 18.3516 28.4721 18.2093 28.6568 18.0277C28.8372 17.8479 28.9801 17.6341 29.0772 17.3987C29.1744 17.1633 29.2239 16.9109 29.2229 16.6563C29.2229 16.2113 29.0715 15.7844 28.79 15.4393ZM17.1953 26.2772H13.8046V20.1014H17.1953V26.2772ZM23.7918 16.4171V26.2772H19.1328V19.3748C19.1328 18.7058 18.5909 18.1639 17.9218 18.1639H13.0781C12.409 18.1639 11.8671 18.7058 11.8671 19.3748V26.2772H7.20806V16.4171H4.30181L15.503 5.22503L16.2023 5.92434L26.7011 16.4171H23.7918Z" fill="#387C6D"/>
</svg>
