<svg width="29" height="30" viewBox="0 0 29 30" fill="none" xmlns="http://www.w3.org/2000/svg">
<g clip-path="url(#clip0_604_286)">
<path d="M27 1.17203e-10L2 0.000149369C2 0.000149369 1 0.000291467 0.5 0.5C0 0.999709 0 2.00015 0 2.00015V28C0 28 0 29 0.5 29.5C1 30 2 30 2 30H27C27 30 28 30 28.5 29.5C29 29 29 28 29 28L29 2.00015C29 2.00015 29 0.999806 28.5 0.499806C28 -0.000194311 27 1.17203e-10 27 1.17203e-10ZM9 25H6V11H9V25ZM7.5 9C6.5 9 5.5 8 5.5 7C5.5 6 6.5 5 7.5 5C8.5 5 9.5 6 9.5 7C9.5 8 8.5 9 7.5 9ZM23 25H20C20 25 20 18 20 17C20 17 20 14.5 17 14.5C15 14.5 15 17 15 17V25H12C12 24.9955 12.0604 12.269 12 11H15V13C16 12 17 11.5 18 11.5C20 11.5 21 12 22 13C23 14 23 15 23 16C23 17 23 25 23 25Z" fill="#343F56"/>
</g>
<defs>
<clipPath id="clip0_604_286">
<rect width="29" height="30.0001" fill="white"/>
</clipPath>
</defs>
</svg>
