<svg width="87" height="87" viewBox="0 0 87 87" fill="none" xmlns="http://www.w3.org/2000/svg">
<g filter="url(#filter0_d_606_463)">
<circle cx="42.5" cy="41.5" r="35.5" fill="#F8F5F1" stroke="#E9896A" stroke-width="4"/>
<path d="M27.4103 31.033C27.8333 31.4921 28.4069 31.75 29.0049 31.75C29.603 31.75 30.1765 31.4921 30.5995 31.033L41.7636 18.9111L52.9278 31.033C53.3531 31.4791 53.9229 31.7259 54.5142 31.7203C55.1056 31.7148 55.6712 31.4572 56.0894 31.0032C56.5076 30.5491 56.7448 29.9349 56.7499 29.2928C56.7551 28.6507 56.5277 28.0322 56.1169 27.5703L43.3582 13.717C42.9352 13.2579 42.3617 13 41.7636 13C41.1656 13 40.592 13.2579 40.1691 13.717L27.4103 27.5703C26.9875 28.0295 26.75 28.6523 26.75 29.3016C26.75 29.951 26.9875 30.5738 27.4103 31.033Z" fill="#E9896A"/>
<path d="M18.1863 48.89C17.4396 48.89 16.7676 48.7687 16.1703 48.526C15.5729 48.2833 15.1156 47.9707 14.7983 47.588L14.9663 45.628H15.3443C15.4469 45.9173 15.5356 46.51 15.6103 47.406C15.8529 47.6767 16.1609 47.896 16.5343 48.064C16.9076 48.2227 17.3229 48.302 17.7803 48.302C18.4243 48.302 18.9703 48.134 19.4183 47.798C19.8756 47.4527 20.1043 46.9673 20.1043 46.342C20.1043 45.9407 19.9969 45.6047 19.7823 45.334C19.5676 45.054 19.3063 44.83 18.9983 44.662C18.6903 44.4847 18.2609 44.2793 17.7103 44.046C17.1129 43.8033 16.6276 43.5793 16.2543 43.374C15.8903 43.1687 15.5823 42.8887 15.3303 42.534C15.0783 42.1793 14.9523 41.736 14.9523 41.204C14.9523 40.42 15.2603 39.8273 15.8763 39.426C16.4923 39.0153 17.3229 38.81 18.3683 38.81C19.0496 38.81 19.6329 38.894 20.1183 39.062C20.6129 39.2207 21.0329 39.4727 21.3783 39.818L21.2243 41.554H20.8323C20.6923 41.162 20.5989 40.6347 20.5523 39.972C20.3376 39.7853 20.0716 39.6453 19.7543 39.552C19.4463 39.4493 19.1056 39.398 18.7323 39.398C18.0416 39.398 17.5096 39.5333 17.1363 39.804C16.7629 40.0653 16.5763 40.4527 16.5763 40.966C16.5763 41.2647 16.6649 41.5213 16.8423 41.736C17.0289 41.9507 17.2576 42.1327 17.5283 42.282C17.8083 42.422 18.1909 42.5993 18.6763 42.814C19.3296 43.094 19.8569 43.3553 20.2583 43.598C20.6596 43.8313 21.0049 44.158 21.2943 44.578C21.5836 44.9887 21.7283 45.502 21.7283 46.118C21.7283 46.6873 21.5743 47.182 21.2663 47.602C20.9583 48.022 20.5336 48.344 19.9923 48.568C19.4603 48.7827 18.8583 48.89 18.1863 48.89ZM26.3826 48.89C25.6173 48.89 24.9546 48.7407 24.3946 48.442C23.8346 48.1433 23.4006 47.7233 23.0926 47.182C22.7939 46.6313 22.6446 45.9967 22.6446 45.278C22.6446 44.5127 22.8033 43.8593 23.1206 43.318C23.4379 42.7767 23.8813 42.366 24.4506 42.086C25.0293 41.7967 25.6966 41.652 26.4526 41.652C27.5166 41.652 28.3893 41.946 29.0706 42.534L28.9586 44.116H28.6226C28.5666 43.9667 28.5199 43.7567 28.4826 43.486C28.4453 43.206 28.4219 42.9493 28.4126 42.716C27.9273 42.38 27.4093 42.212 26.8586 42.212C26.0186 42.212 25.3653 42.4827 24.8986 43.024C24.4413 43.556 24.2126 44.326 24.2126 45.334C24.2126 45.8567 24.3013 46.3513 24.4786 46.818C24.6653 47.2753 24.9499 47.6487 25.3326 47.938C25.7153 48.218 26.1959 48.358 26.7746 48.358C27.1479 48.358 27.5353 48.2973 27.9366 48.176C28.3379 48.0453 28.6833 47.868 28.9726 47.644L29.1126 48.05C28.8233 48.2927 28.4406 48.4933 27.9646 48.652C27.4886 48.8107 26.9613 48.89 26.3826 48.89ZM29.6823 48.554C29.981 48.4327 30.3543 48.344 30.8023 48.288V42.282C30.401 42.198 30.079 42.114 29.8363 42.03V41.918L32.1743 41.652L32.3143 42.898H32.3703C32.529 42.5247 32.767 42.226 33.0843 42.002C33.411 41.7687 33.7657 41.652 34.1483 41.652C34.4003 41.652 34.6243 41.6753 34.8203 41.722C35.0257 41.7687 35.2263 41.8527 35.4223 41.974L35.1283 42.744C34.8857 42.5667 34.615 42.478 34.3163 42.478C33.9243 42.478 33.5557 42.6133 33.2103 42.884C32.8743 43.1453 32.5897 43.4767 32.3563 43.878V48.288C32.7203 48.344 33.089 48.4373 33.4623 48.568V48.75H29.6823V48.554ZM39.8087 48.89C38.5954 48.89 37.6527 48.5727 36.9807 47.938C36.3181 47.3033 35.9867 46.4167 35.9867 45.278C35.9867 44.1393 36.3181 43.2527 36.9807 42.618C37.6527 41.974 38.5954 41.652 39.8087 41.652C41.0221 41.652 41.9601 41.974 42.6227 42.618C43.2947 43.2527 43.6307 44.1393 43.6307 45.278C43.6307 46.4167 43.2947 47.3033 42.6227 47.938C41.9601 48.5727 41.0221 48.89 39.8087 48.89ZM39.8087 48.33C40.4994 48.33 41.0454 48.0593 41.4467 47.518C41.8574 46.9767 42.0627 46.23 42.0627 45.278C42.0627 44.326 41.8574 43.5793 41.4467 43.038C41.0454 42.4873 40.4994 42.212 39.8087 42.212C39.1087 42.212 38.5534 42.4873 38.1427 43.038C37.7414 43.5793 37.5407 44.326 37.5407 45.278C37.5407 46.23 37.7414 46.9767 38.1427 47.518C38.5534 48.0593 39.1087 48.33 39.8087 48.33ZM44.3826 48.568C44.6532 48.4747 45.0219 48.3813 45.4886 48.288V39.496C45.1059 39.4213 44.7839 39.3373 44.5226 39.244V39.118L47.0426 38.866V48.288C47.4532 48.3533 47.8266 48.4467 48.1626 48.568V48.75H44.3826V48.568ZM48.9763 48.568C49.247 48.4747 49.6156 48.3813 50.0823 48.288V39.496C49.6996 39.4213 49.3776 39.3373 49.1163 39.244V39.118L51.6363 38.866V48.288C52.047 48.3533 52.4203 48.4467 52.7563 48.568V48.75H48.9763V48.568ZM61.9801 48.652C61.5135 48.8107 60.9908 48.89 60.4121 48.89C59.7121 48.89 59.1615 48.7267 58.7601 48.4C58.3588 48.064 58.1581 47.5413 58.1581 46.832V42.338H56.9961V41.778H58.1581V41.162C58.6061 41.0033 58.8721 40.5787 58.9561 39.888H59.7121V41.778H61.7841V42.338H59.7121V46.832C59.7121 47.3733 59.8195 47.756 60.0341 47.98C60.2581 48.1947 60.5708 48.302 60.9721 48.302C61.2615 48.302 61.5648 48.246 61.8821 48.134L61.9801 48.652ZM66.5099 48.89C65.2966 48.89 64.3539 48.5727 63.6819 47.938C63.0192 47.3033 62.6879 46.4167 62.6879 45.278C62.6879 44.1393 63.0192 43.2527 63.6819 42.618C64.3539 41.974 65.2966 41.652 66.5099 41.652C67.7232 41.652 68.6612 41.974 69.3239 42.618C69.9959 43.2527 70.3319 44.1393 70.3319 45.278C70.3319 46.4167 69.9959 47.3033 69.3239 47.938C68.6612 48.5727 67.7232 48.89 66.5099 48.89ZM66.5099 48.33C67.2006 48.33 67.7466 48.0593 68.1479 47.518C68.5586 46.9767 68.7639 46.23 68.7639 45.278C68.7639 44.326 68.5586 43.5793 68.1479 43.038C67.7466 42.4873 67.2006 42.212 66.5099 42.212C65.8099 42.212 65.2546 42.4873 64.8439 43.038C64.4426 43.5793 64.2419 44.326 64.2419 45.278C64.2419 46.23 64.4426 46.9767 64.8439 47.518C65.2546 48.0593 65.8099 48.33 66.5099 48.33ZM36.3795 65.652C35.9129 65.8107 35.3902 65.89 34.8115 65.89C34.1115 65.89 33.5609 65.7267 33.1595 65.4C32.7582 65.064 32.5575 64.5413 32.5575 63.832V59.338H31.3955V58.778H32.5575V58.162C33.0055 58.0033 33.2715 57.5787 33.3555 56.888H34.1115V58.778H36.1835V59.338H34.1115V63.832C34.1115 64.3733 34.2189 64.756 34.4335 64.98C34.6575 65.1947 34.9702 65.302 35.3715 65.302C35.6609 65.302 35.9642 65.246 36.2815 65.134L36.3795 65.652ZM40.9093 65.89C39.696 65.89 38.7533 65.5727 38.0813 64.938C37.4186 64.3033 37.0873 63.4167 37.0873 62.278C37.0873 61.1393 37.4186 60.2527 38.0813 59.618C38.7533 58.974 39.696 58.652 40.9093 58.652C42.1226 58.652 43.0606 58.974 43.7233 59.618C44.3953 60.2527 44.7313 61.1393 44.7313 62.278C44.7313 63.4167 44.3953 64.3033 43.7233 64.938C43.0606 65.5727 42.1226 65.89 40.9093 65.89ZM40.9093 65.33C41.6 65.33 42.146 65.0593 42.5473 64.518C42.958 63.9767 43.1633 63.23 43.1633 62.278C43.1633 61.326 42.958 60.5793 42.5473 60.038C42.146 59.4873 41.6 59.212 40.9093 59.212C40.2093 59.212 39.654 59.4873 39.2433 60.038C38.842 60.5793 38.6413 61.326 38.6413 62.278C38.6413 63.23 38.842 63.9767 39.2433 64.518C39.654 65.0593 40.2093 65.33 40.9093 65.33ZM45.2311 68.914C45.4551 68.8487 45.8285 68.76 46.3511 68.648V59.282C45.9591 59.2073 45.6371 59.128 45.3851 59.044V58.904L47.9051 58.652V59.618C48.2318 59.2447 48.5958 58.9927 48.9971 58.862C49.4078 58.722 49.7951 58.652 50.1591 58.652C51.1951 58.652 51.9978 58.9413 52.5671 59.52C53.1365 60.0893 53.4211 60.948 53.4211 62.096C53.4211 63.3933 53.1271 64.35 52.5391 64.966C51.9511 65.582 51.1111 65.89 50.0191 65.89C49.5805 65.89 49.1698 65.8153 48.7871 65.666C48.4045 65.5073 48.1105 65.26 47.9051 64.924V68.662C48.2691 68.718 48.6378 68.8067 49.0111 68.928V69.124H45.2311V68.914ZM49.8231 65.33C50.5418 65.33 51.0598 65.0453 51.3771 64.476C51.6945 63.8973 51.8531 63.1273 51.8531 62.166C51.8531 61.1767 51.6991 60.4393 51.3911 59.954C51.0831 59.4593 50.5651 59.212 49.8371 59.212C49.4638 59.212 49.1045 59.3193 48.7591 59.534C48.4231 59.7393 48.1385 60.0007 47.9051 60.318V63.37C47.9051 63.9113 48.0778 64.3733 48.4231 64.756C48.7685 65.1387 49.2351 65.33 49.8231 65.33Z" fill="#E9896A"/>
</g>
<defs>
<filter id="filter0_d_606_463" x="0" y="0" width="87" height="87" filterUnits="userSpaceOnUse" color-interpolation-filters="sRGB">
<feFlood flood-opacity="0" result="BackgroundImageFix"/>
<feColorMatrix in="SourceAlpha" type="matrix" values="0 0 0 0 0 0 0 0 0 0 0 0 0 0 0 0 0 0 127 0" result="hardAlpha"/>
<feOffset dx="1" dy="2"/>
<feGaussianBlur stdDeviation="3"/>
<feComposite in2="hardAlpha" operator="out"/>
<feColorMatrix type="matrix" values="0 0 0 0 0.164236 0 0 0 0 0.179167 0 0 0 0 0.17262 0 0 0 0.4 0"/>
<feBlend mode="normal" in2="BackgroundImageFix" result="effect1_dropShadow_606_463"/>
<feBlend mode="normal" in="SourceGraphic" in2="effect1_dropShadow_606_463" result="shape"/>
</filter>
</defs>
</svg>
