<svg width="43" height="67" viewBox="0 0 43 67" fill="none" xmlns="http://www.w3.org/2000/svg">
<g filter="url(#filter0_d_704_314)">
<path d="M39.4704 63.5913C40.4498 62.689 41 61.4654 41 60.1895C41 58.9137 40.4498 57.6901 39.4704 56.7878L13.6103 32.971L39.4704 9.15408C40.422 8.24663 40.9486 7.03123 40.9367 5.76967C40.9248 4.50812 40.3754 3.30134 39.4068 2.40925C38.4381 1.51716 37.1278 1.01114 35.758 1.00018C34.3883 0.989219 33.0686 1.47419 32.0833 2.35064L2.52959 29.5692C1.5502 30.4715 1 31.6951 1 32.971C1 34.2468 1.5502 35.4704 2.52959 36.3727L32.0833 63.5913C33.063 64.4933 34.3916 65 35.7768 65C37.1621 65 38.4907 64.4933 39.4704 63.5913Z" fill="#2A2D34"/>
<path d="M11.7651 32.971L12.7635 32.0515L38.6149 8.24261C39.3235 7.56339 39.6952 6.67796 39.6868 5.78147C39.6783 4.88181 39.2871 3.99842 38.56 3.32871C37.8295 2.65595 36.8213 2.25873 35.748 2.25014C34.6784 2.24158 33.6651 2.62006 32.9216 3.27791L3.37655 30.4886C2.64134 31.1659 2.25 32.0613 2.25 32.971C2.25 33.8805 2.6413 34.7759 3.37641 35.4532L11.7651 32.971ZM11.7651 32.971L12.7635 33.8904M11.7651 32.971L12.7635 33.8904M12.7635 33.8904L38.6235 57.7072C39.3587 58.3845 39.75 59.2799 39.75 60.1895C39.75 61.0991 39.3588 61.9944 38.6237 62.6717L12.7635 33.8904ZM32.93 62.6717L3.37655 35.4533L38.6235 62.6719C37.8846 63.3521 36.8622 63.75 35.7768 63.75C34.6914 63.75 33.669 63.352 32.9301 62.6718C32.9301 62.6718 32.93 62.6717 32.93 62.6717Z" stroke="#111215" stroke-width="2.5"/>
</g>
<defs>
<filter id="filter0_d_704_314" x="0.5" y="0.5" width="42" height="66" filterUnits="userSpaceOnUse" color-interpolation-filters="sRGB">
<feFlood flood-opacity="0" result="BackgroundImageFix"/>
<feColorMatrix in="SourceAlpha" type="matrix" values="0 0 0 0 0 0 0 0 0 0 0 0 0 0 0 0 0 0 127 0" result="hardAlpha"/>
<feOffset dx="0.5" dy="0.5"/>
<feGaussianBlur stdDeviation="0.5"/>
<feComposite in2="hardAlpha" operator="out"/>
<feColorMatrix type="matrix" values="0 0 0 0 0.0666667 0 0 0 0 0.0705882 0 0 0 0 0.0823529 0 0 0 0.6 0"/>
<feBlend mode="normal" in2="BackgroundImageFix" result="effect1_dropShadow_704_314"/>
<feBlend mode="normal" in="SourceGraphic" in2="effect1_dropShadow_704_314" result="shape"/>
</filter>
</defs>
</svg>
