<svg width="43" height="67" viewBox="0 0 43 67" fill="none" xmlns="http://www.w3.org/2000/svg">
<g filter="url(#filter0_d_704_316)">
<path d="M2.5296 2.40874C1.5502 3.31103 1 4.53463 1 5.81046C1 7.08629 1.5502 8.3099 2.5296 9.21218L28.3897 33.029L2.5296 56.8459C1.57795 57.7534 1.05138 58.9688 1.06328 60.2303C1.07518 61.4919 1.62461 62.6987 2.59324 63.5908C3.56186 64.4828 4.87217 64.9889 6.24196 64.9998C7.61174 65.0108 8.9314 64.5258 9.91671 63.6494L39.4704 36.4308C40.4498 35.5285 41 34.3049 41 33.029C41 31.7532 40.4498 30.5296 39.4704 29.6273L9.91671 2.40874C8.93702 1.50672 7.60844 1 6.22315 1C4.83787 1 3.50929 1.50672 2.5296 2.40874Z" fill="#2A2D34"/>
<path d="M30.2349 33.029L29.2365 33.9485L3.38508 57.7574C2.67651 58.4366 2.30476 59.322 2.31322 60.2185C2.32171 61.1182 2.71287 62.0016 3.44005 62.6713C4.17052 63.3441 5.17873 63.7413 6.25196 63.7499C7.32159 63.7584 8.33486 63.3799 9.07838 62.7221L38.6235 35.5114C39.3587 34.8341 39.75 33.9387 39.75 33.029C39.75 32.1195 39.3587 31.2241 38.6236 30.5468L30.2349 33.029ZM30.2349 33.029L29.2365 32.1096M30.2349 33.029L29.2365 32.1096M29.2365 32.1096L3.37655 8.29285C2.64135 7.61553 2.25 6.7201 2.25 5.81046C2.25 4.90094 2.64125 4.00561 3.37627 3.32833L29.2365 32.1096ZM9.07004 3.32833L38.6235 30.5467L3.37655 3.32807C4.11542 2.64792 5.13778 2.25 6.22316 2.25C7.30859 2.25 8.33101 2.64797 9.0699 3.3282C9.06994 3.32824 9.06999 3.32828 9.07004 3.32833Z" stroke="#111215" stroke-width="2.5"/>
</g>
<defs>
<filter id="filter0_d_704_316" x="0.5" y="0.5" width="42" height="66" filterUnits="userSpaceOnUse" color-interpolation-filters="sRGB">
<feFlood flood-opacity="0" result="BackgroundImageFix"/>
<feColorMatrix in="SourceAlpha" type="matrix" values="0 0 0 0 0 0 0 0 0 0 0 0 0 0 0 0 0 0 127 0" result="hardAlpha"/>
<feOffset dx="0.5" dy="0.5"/>
<feGaussianBlur stdDeviation="0.5"/>
<feComposite in2="hardAlpha" operator="out"/>
<feColorMatrix type="matrix" values="0 0 0 0 0.0666667 0 0 0 0 0.0705882 0 0 0 0 0.0823529 0 0 0 0.6 0"/>
<feBlend mode="normal" in2="BackgroundImageFix" result="effect1_dropShadow_704_316"/>
<feBlend mode="normal" in="SourceGraphic" in2="effect1_dropShadow_704_316" result="shape"/>
</filter>
</defs>
</svg>
