<svg width="40" height="26" viewBox="0 0 40 26" fill="none" xmlns="http://www.w3.org/2000/svg">
<path d="M39.1195 1.456C38.5556 0.843874 37.7909 0.5 36.9935 0.5C36.1961 0.5 35.4313 0.843874 34.8674 1.456L19.9818 17.6186L5.0963 1.456C4.52914 0.861221 3.76952 0.53211 2.98105 0.539551C2.19257 0.546989 1.43834 0.890383 0.880779 1.49577C0.323227 2.10116 0.00696564 2.92011 0.000114441 3.77622C-0.00673676 4.63234 0.296371 5.45713 0.844151 6.07294L17.8558 24.544C18.4197 25.1561 19.1844 25.5 19.9818 25.5C20.7792 25.5 21.544 25.1561 22.1079 24.544L39.1195 6.07294C39.6833 5.46063 40 4.63028 40 3.76447C40 2.89866 39.6833 2.06831 39.1195 1.456Z" fill="white"/>
</svg>
