<svg width="40" height="26" viewBox="0 0 40 26" fill="none" xmlns="http://www.w3.org/2000/svg">
<path d="M0.880462 24.544C1.44439 25.1561 2.20914 25.5 3.00654 25.5C3.80393 25.5 4.56868 25.1561 5.13261 24.544L20.0182 8.38142L34.9037 24.544C35.4709 25.1388 36.2305 25.4679 37.019 25.4604C37.8074 25.453 38.5617 25.1096 39.1192 24.5042C39.6768 23.8988 39.993 23.0799 39.9999 22.2238C40.0067 21.3677 39.7036 20.5429 39.1558 19.9271L22.1442 1.456C21.5803 0.843872 20.8156 0.5 20.0182 0.5C19.2208 0.5 18.456 0.843872 17.8921 1.456L0.880462 19.9271C0.316702 20.5394 0 21.3697 0 22.2355C0 23.1013 0.316702 23.9317 0.880462 24.544Z" fill="white"/>
</svg>
