<svg width="51" height="51" viewBox="0 0 51 51" fill="none" xmlns="http://www.w3.org/2000/svg">
<g clip-path="url(#clip0_436_791)">
<path d="M17.6402 1.89445C12.6444 3.62753 8.33606 6.91697 5.34797 11.2796C2.35987 15.6423 0.849533 20.8481 1.03879 26.1326C1.22806 31.4171 3.10694 36.5015 6.39948 40.6393C9.69201 44.777 14.2246 47.7498 19.3316 49.121C23.4719 50.1894 27.8098 50.2363 31.9722 49.2577C35.743 48.4107 39.2292 46.599 42.0894 43.9999C45.0663 41.2122 47.2271 37.6658 48.3394 33.7421C49.5481 29.4751 49.7632 24.988 48.9683 20.6249H25.7183V30.2694H39.1832C38.9141 31.8077 38.3374 33.2758 37.4877 34.586C36.6379 35.8961 35.5326 37.0214 34.2379 37.8945C32.5939 38.9825 30.7403 39.7143 28.7964 40.0429C26.847 40.4055 24.8474 40.4055 22.898 40.0429C20.922 39.6348 19.0528 38.8193 17.4097 37.6484C14.7697 35.7796 12.7874 33.1246 11.7457 30.0624C10.6866 26.9428 10.6866 23.5609 11.7457 20.4413C12.4872 18.2547 13.713 16.2637 15.3316 14.6171C17.1839 12.6981 19.529 11.3265 22.1096 10.6526C24.6901 9.97865 27.4064 10.0286 29.9605 10.7968C31.9558 11.409 33.7804 12.4791 35.2886 13.9218C36.8069 12.4114 38.3225 10.8971 39.8355 9.37882C40.6168 8.56242 41.4683 7.78507 42.2378 6.94913C39.9352 4.80663 37.2326 3.13939 34.2847 2.04289C28.9164 0.0936266 23.0424 0.0412422 17.6402 1.89445Z" fill="white"/>
<path d="M17.6401 1.89464C23.0419 0.040172 28.9159 0.0911775 34.2847 2.03917C37.2331 3.14312 39.9345 4.81839 42.2339 6.96886C41.4526 7.80479 40.6284 8.58604 39.8315 9.39854C38.3159 10.9116 36.8016 12.4194 35.2886 13.922C33.7803 12.4793 31.9558 11.4092 29.9604 10.797C27.4072 10.026 24.691 9.97326 22.1097 10.6444C19.5285 11.3156 17.182 12.6847 15.3276 14.6017C13.709 16.2483 12.4832 18.2392 11.7417 20.4259L3.64404 14.1564C6.54251 8.40855 11.561 4.01192 17.6401 1.89464Z" fill="#E33629"/>
<path d="M1.49559 20.3672C1.93051 18.21 2.65312 16.1211 3.64403 14.1562L11.7417 20.4414C10.6827 23.561 10.6827 26.9429 11.7417 30.0625C9.04377 32.1458 6.34455 34.2396 3.64403 36.3438C1.16415 31.4075 0.407831 25.7832 1.49559 20.3672Z" fill="#F8BD00"/>
<path d="M25.7183 20.6211H48.9683C49.7632 24.9841 49.548 29.4713 48.3394 33.7383C47.227 37.662 45.0663 41.2084 42.0894 43.9961C39.4761 41.957 36.8511 39.9336 34.2378 37.8945C35.5334 37.0206 36.6393 35.8941 37.489 34.5826C38.3388 33.271 38.915 31.8013 39.1831 30.2617H25.7183C25.7144 27.0508 25.7183 23.8359 25.7183 20.6211Z" fill="#587DBD"/>
<path d="M3.64014 36.3438C6.34066 34.2604 9.03988 32.1667 11.7378 30.0625C12.7816 33.1258 14.7667 35.7808 17.4097 37.6484C19.0579 38.8139 20.9311 39.6228 22.9097 40.0234C24.8591 40.386 26.8587 40.386 28.8081 40.0234C30.752 39.6949 32.6055 38.963 34.2495 37.875C36.8628 39.9141 39.4878 41.9375 42.1011 43.9766C39.2413 46.5771 35.7551 48.3902 31.9839 49.2383C27.8214 50.2168 23.4836 50.1699 19.3433 49.1016C16.0687 48.2272 13.01 46.6859 10.3589 44.5742C7.55314 42.3462 5.26137 39.5388 3.64014 36.3438Z" fill="#319F43"/>
</g>
<defs>
<clipPath id="clip0_436_791">
<rect width="50" height="50" fill="white" transform="translate(0.222168 0.25)"/>
</clipPath>
</defs>
</svg>
