<svg width="50" height="51" viewBox="0 0 50 51" fill="none" xmlns="http://www.w3.org/2000/svg">
<path d="M30.4583 5.79582C30.8538 5.90646 31.2235 6.09394 31.5465 6.34756C31.8694 6.60117 32.1392 6.91594 32.3404 7.27388C32.5416 7.63182 32.6703 8.02591 32.7192 8.43361C32.768 8.84132 32.736 9.25465 32.625 9.64999L23.3938 42.5396C23.17 43.3377 22.6383 44.0143 21.9157 44.4204C21.1931 44.8265 20.3388 44.929 19.5406 44.7052C18.7425 44.4814 18.0659 43.9498 17.6598 43.2271C17.2537 42.5045 17.1512 41.6502 17.375 40.8521L26.6062 7.95832C26.7171 7.56307 26.9048 7.19354 27.1585 6.87083C27.4122 6.54812 27.727 6.27856 28.0849 6.07755C28.4428 5.87654 28.8368 5.74801 29.2444 5.69931C29.652 5.65062 30.0652 5.6827 30.4604 5.79374L30.4583 5.79582ZM15.75 14.2021C16.3352 14.788 16.6639 15.5823 16.6639 16.4104C16.6639 17.2385 16.3352 18.0328 15.75 18.6187L9.125 25.25L15.7542 31.8792C16.3401 32.4654 16.6692 33.2604 16.669 34.0893C16.6688 34.9181 16.3394 35.713 15.7531 36.2989C15.1669 36.8849 14.3719 37.214 13.543 37.2138C12.7141 37.2136 11.9193 36.8841 11.3333 36.2979L2.49375 27.4583C1.90854 26.8724 1.57983 26.0781 1.57983 25.25C1.57983 24.4219 1.90854 23.6276 2.49375 23.0417L11.3313 14.2021C11.6215 13.9117 11.966 13.6813 12.3453 13.5241C12.7246 13.367 13.1311 13.2861 13.5417 13.2861C13.9522 13.2861 14.3587 13.367 14.738 13.5241C15.1173 13.6813 15.4598 13.9117 15.75 14.2021ZM34.25 18.6187C33.943 18.3326 33.6967 17.9876 33.5259 17.6043C33.3551 17.221 33.2633 16.8072 33.2559 16.3876C33.2485 15.968 33.3257 15.5512 33.4828 15.1621C33.64 14.773 33.8739 14.4195 34.1707 14.1227C34.4674 13.826 34.8209 13.5921 35.21 13.4349C35.5991 13.2777 36.0159 13.2005 36.4355 13.2079C36.8551 13.2153 37.2689 13.3072 37.6522 13.478C38.0356 13.6488 38.3806 13.895 38.6667 14.2021L47.5062 23.0396C48.0921 23.6256 48.4212 24.4203 48.4212 25.2489C48.4212 26.0776 48.0921 26.8723 47.5062 27.4583L38.6688 36.2979C38.3786 36.5882 38.0341 36.8185 37.655 36.9756C37.2759 37.1328 36.8695 37.2137 36.4591 37.2138C36.0487 37.2139 35.6422 37.1332 35.263 36.9762C34.8838 36.8192 34.5392 36.5891 34.249 36.2989C33.9587 36.0088 33.7284 35.6643 33.5712 35.2852C33.4141 34.9061 33.3332 34.4997 33.3331 34.0893C33.333 33.6789 33.4137 33.2724 33.5707 32.8932C33.7277 32.514 33.9578 32.1694 34.2479 31.8792L40.8771 25.25L34.25 18.6187Z" fill="#2A2E2C"/>
</svg>
