<svg width="34" height="51" viewBox="0 0 34 51" fill="none" xmlns="http://www.w3.org/2000/svg">
<g clip-path="url(#clip0_436_785)">
<path d="M8.33333 50.2499C12.9333 50.2499 16.6667 46.5166 16.6667 41.9166V33.5833H8.33333C3.73333 33.5833 0 37.3166 0 41.9166C0 46.5166 3.73333 50.2499 8.33333 50.2499Z" fill="#0ACF83"/>
<path d="M0 25.2501C0 20.6501 3.73333 16.9167 8.33333 16.9167H16.6667V33.5834H8.33333C3.73333 33.5834 0 29.8501 0 25.2501Z" fill="#A259FF"/>
<path d="M0 8.58333C0 3.98333 3.73333 0.25 8.33333 0.25H16.6667V16.9167H8.33333C3.73333 16.9167 0 13.1833 0 8.58333Z" fill="#F24E1E"/>
<path d="M16.6667 0.25H25.0001C29.6001 0.25 33.3334 3.98333 33.3334 8.58333C33.3334 13.1833 29.6001 16.9167 25.0001 16.9167H16.6667V0.25Z" fill="#FF7262"/>
<path d="M33.3334 25.2501C33.3334 29.8501 29.6001 33.5834 25.0001 33.5834C20.4001 33.5834 16.6667 29.8501 16.6667 25.2501C16.6667 20.6501 20.4001 16.9167 25.0001 16.9167C29.6001 16.9167 33.3334 20.6501 33.3334 25.2501Z" fill="#1ABCFE"/>
</g>
<defs>
<clipPath id="clip0_436_785">
<rect width="33.3333" height="50" fill="white" transform="translate(0 0.25)"/>
</clipPath>
</defs>
</svg>
