<svg width="56" height="53" viewBox="0 0 56 53" fill="none" xmlns="http://www.w3.org/2000/svg">
<path d="M17.6111 50C14.1528 50 11.2044 48.7808 8.76609 46.3425C6.32775 43.9042 5.10942 40.9567 5.11109 37.5V15C3.73609 15 2.55859 14.51 1.57859 13.53C0.598588 12.55 0.109422 11.3733 0.111088 10V5C0.111088 3.625 0.601088 2.4475 1.58109 1.4675C2.56109 0.487504 3.73775 -0.00166242 5.11109 4.24448e-06H30.1111C31.4861 4.24448e-06 32.6636 0.490004 33.6436 1.47C34.6236 2.45 35.1128 3.62667 35.1111 5V10C35.1111 11.375 34.6211 12.5525 33.6411 13.5325C32.6611 14.5125 31.4844 15.0017 30.1111 15V22.5625C28.3611 23.6875 26.8711 25.0942 25.6411 26.7825C24.4111 28.4708 23.5469 30.3767 23.0486 32.5H17.6111V27.5H25.1111V25H17.6111V20H25.1111V15H10.1111V37.5C10.1111 39.5833 10.8403 41.3542 12.2986 42.8125C13.7569 44.2708 15.5278 45 17.6111 45C18.8611 45 20.0069 44.7292 21.0486 44.1875C22.0903 43.6458 22.9653 42.8958 23.6736 41.9375C24.0069 42.7708 24.3819 43.5625 24.7986 44.3125C25.2153 45.0625 25.7153 45.7917 26.2986 46.5C25.1736 47.5833 23.8711 48.4375 22.3911 49.0625C20.9111 49.6875 19.3178 50 17.6111 50ZM17.6111 40V35H22.6736C22.5903 35.8333 22.5794 36.6667 22.6411 37.5C22.7028 38.3333 22.8386 39.1667 23.0486 40H17.6111ZM38.8611 42.5C40.6111 42.5 42.0903 41.8958 43.2986 40.6875C44.5069 39.4792 45.1111 38 45.1111 36.25C45.1111 34.5 44.5069 33.0208 43.2986 31.8125C42.0903 30.6042 40.6111 30 38.8611 30C37.1111 30 35.6319 30.6042 34.4236 31.8125C33.2153 33.0208 32.6111 34.5 32.6111 36.25C32.6111 38 33.2153 39.4792 34.4236 40.6875C35.6319 41.8958 37.1111 42.5 38.8611 42.5ZM51.6111 52.5L44.8611 45.75C43.9444 46.3333 42.9861 46.7708 41.9861 47.0625C40.9861 47.3542 39.9444 47.5 38.8611 47.5C35.7361 47.5 33.0803 46.4058 30.8936 44.2175C28.7069 42.0292 27.6128 39.3733 27.6111 36.25C27.6111 33.125 28.7053 30.4683 30.8936 28.28C33.0819 26.0917 35.7378 24.9983 38.8611 25C41.9861 25 44.6428 26.0942 46.8311 28.2825C49.0194 30.4708 50.1128 33.1267 50.1111 36.25C50.1111 37.3333 49.9653 38.375 49.6736 39.375C49.3819 40.375 48.9444 41.3333 48.3611 42.25L55.1111 49L51.6111 52.5Z" fill="#2A2E2C"/>
</svg>
